<svg width="18" height="18" viewBox="0 0 18 18" fill="none" xmlns="http://www.w3.org/2000/svg">
<g id="grid-search">
<path id="Icon" d="M15 15L13.7008 13.7008M13.7008 13.7008C14.0401 13.3615 14.25 12.8928 14.25 12.375C14.25 11.3395 13.4105 10.5 12.375 10.5C11.3395 10.5 10.5 11.3395 10.5 12.375C10.5 13.4105 11.3395 14.25 12.375 14.25C12.8928 14.25 13.3615 14.0401 13.7008 13.7008ZM11.7 7.5H13.8C14.22 7.5 14.4301 7.5 14.5905 7.41825C14.7316 7.34635 14.8463 7.23161 14.9183 7.09049C15 6.93006 15 6.72004 15 6.3V4.2C15 3.77996 15 3.56994 14.9183 3.40951C14.8463 3.26839 14.7316 3.15365 14.5905 3.08175C14.4301 3 14.22 3 13.8 3H11.7C11.28 3 11.0699 3 10.9095 3.08175C10.7684 3.15365 10.6537 3.26839 10.5817 3.40951C10.5 3.56994 10.5 3.77996 10.5 4.2V6.3C10.5 6.72004 10.5 6.93006 10.5817 7.09049C10.6537 7.23161 10.7684 7.34635 10.9095 7.41825C11.0699 7.5 11.28 7.5 11.7 7.5ZM4.2 7.5H6.3C6.72004 7.5 6.93006 7.5 7.09049 7.41825C7.23161 7.34635 7.34635 7.23161 7.41825 7.09049C7.5 6.93006 7.5 6.72004 7.5 6.3V4.2C7.5 3.77996 7.5 3.56994 7.41825 3.40951C7.34635 3.26839 7.23161 3.15365 7.09049 3.08175C6.93006 3 6.72004 3 6.3 3H4.2C3.77996 3 3.56994 3 3.40951 3.08175C3.26839 3.15365 3.15365 3.26839 3.08175 3.40951C3 3.56994 3 3.77996 3 4.2V6.3C3 6.72004 3 6.93006 3.08175 7.09049C3.15365 7.23161 3.26839 7.34635 3.40951 7.41825C3.56994 7.5 3.77996 7.5 4.2 7.5ZM4.2 15H6.3C6.72004 15 6.93006 15 7.09049 14.9183C7.23161 14.8463 7.34635 14.7316 7.41825 14.5905C7.5 14.4301 7.5 14.22 7.5 13.8V11.7C7.5 11.28 7.5 11.0699 7.41825 10.9095C7.34635 10.7684 7.23161 10.6537 7.09049 10.5817C6.93006 10.5 6.72004 10.5 6.3 10.5H4.2C3.77996 10.5 3.56994 10.5 3.40951 10.5817C3.26839 10.6537 3.15365 10.7684 3.08175 10.9095C3 11.0699 3 11.28 3 11.7V13.8C3 14.22 3 14.4301 3.08175 14.5905C3.15365 14.7316 3.26839 14.8463 3.40951 14.9183C3.56994 15 3.77996 15 4.2 15Z" stroke="black" stroke-opacity="0.87" stroke-width="1.5" stroke-linecap="round" stroke-linejoin="round"/>
</g>
</svg>
