<svg width="177" height="63" viewBox="0 0 177 63" fill="none" xmlns="http://www.w3.org/2000/svg">
<path fill-rule="evenodd" clip-rule="evenodd" d="M158.336 46.2671V37.0406H164.278C164.852 37.0406 165.999 37.322 165.999 38.448V41.5756C165.999 41.9927 165.78 42.8267 164.904 42.8267H164.826H163.653L166.781 46.2671H164.278L161.229 42.8267H159.9V46.2671H158.336ZM159.9 38.7607V41.2628H163.497C163.81 41.2628 164.279 40.7937 164.279 40.4809V39.5426C164.279 39.3081 164.216 38.7607 163.653 38.7607H159.9Z" fill="#F1141E"/>
<path d="M148.016 38.9171V37.0406H156.304V38.9171H153.02V46.2671H151.143V38.9171H148.016Z" fill="#F1141E"/>
<path fill-rule="evenodd" clip-rule="evenodd" d="M89.5283 46.2671H91.3267L92.1086 44.3905H96.4873L97.2692 46.2671H99.3804L95.2363 37.0406H93.5161L89.5283 46.2671ZM95.5843 42.5139L94.2977 39.2299L93.0111 42.5139H95.5843Z" fill="#F1141E"/>
<path d="M87.8865 40.1682L86.1663 40.5592H86.0882V38.9171H81.7095V44.5469H86.1663V42.5139L87.8084 43.2958V45.016C87.8084 45.9543 86.9743 46.241 86.5573 46.2671H81.2403C80.2395 46.2671 79.9893 45.6416 79.9893 45.3288V38.448C79.9893 37.1969 81.0057 37.0406 81.6313 37.0406H86.01C88.1368 37.1657 87.8865 38.7608 87.8865 40.1682Z" fill="#F1141E"/>
<path d="M124.011 40.1682L122.29 40.5592H122.212V38.9171H117.833V44.5469H122.29V42.5139L123.932 43.2958V45.016C123.932 45.9543 123.098 46.241 122.681 46.2671H117.364C116.363 46.2671 116.113 45.6416 116.113 45.3288V38.448C116.113 37.1969 117.13 37.0406 117.755 37.0406H122.134C124.261 37.1657 124.011 38.7608 124.011 40.1682Z" fill="#F1141E"/>
<path d="M52.7783 46.2671V37.0406H60.1283V38.6826H54.4203V40.6373H57.7825V42.3575H54.4203V44.5469H60.2847V46.2671H52.7783Z" fill="#F1141E"/>
<path d="M127.217 46.2671V37.0406H134.567V38.6826H128.859V40.6373H132.221V42.3575H128.859V44.5469H134.723V46.2671H127.217Z" fill="#F1141E"/>
<path d="M169.284 46.2671V37.0406H176.634V38.6826H170.926V40.6373H174.288V42.3575H170.926V44.5469H176.791V46.2671H169.284Z" fill="#F1141E"/>
<path d="M139.18 46.2671H137.538V37.0406H138.789L144.419 42.9831L144.497 37.0406H146.139V46.2671H144.732L139.18 40.4028V46.2671Z" fill="#F1141E"/>
<path fill-rule="evenodd" clip-rule="evenodd" d="M63.1006 37.0406V46.2671H68.8867C71.858 46.0325 73.9691 38.9953 68.8867 37.0406H63.1006ZM64.9771 38.9171V44.5469H67.0883C69.9813 44.5469 71.6234 39.699 67.0883 38.9171H64.9771Z" fill="#F1141E"/>
<path d="M7.42814 29.7688L0 30.9417L8.28825 32.1927L14.4653 24.4518L20.5642 41.4975L23.5355 13.7397L30.2599 63L36.2806 29.6906L39.0173 33.4438L176.633 31.7236L40.5029 29.2997L34.9514 23.6699L30.5727 44.0778L23.9264 1.46368L19.0786 34.0693L14.9345 21.0114L7.42814 29.7688Z" fill="#F1141E"/>
<path d="M43.083 3.88758V0.134415H54.968V3.88758H51.7622V10.612H61.5361V3.88758H58.4084V0.134415H70.2153V3.88758H67.3222V21.5587H70.2153V25.3119H58.4084V21.5587H61.5361V14.5216H51.7622V21.5587H54.968V25.3119H43.083V21.5587H46.0543V3.88758H43.083Z" fill="#F1141E"/>
<path fill-rule="evenodd" clip-rule="evenodd" d="M70.9189 21.5587V25.3119H81.5529V21.5587H78.5817L79.9891 17.962H88.9811L90.3103 21.5587H87.3391V25.3119H98.7549V21.5587H96.6438L88.121 0.134415H81.5529L73.1083 21.5587H70.9189ZM87.4931 14.0915L84.4459 5.76415L81.3987 14.0915H87.4931Z" fill="#F1141E"/>
<path fill-rule="evenodd" clip-rule="evenodd" d="M116.739 21.5587V25.3119H127.373V21.5587H124.402L125.809 17.962H134.801L136.131 21.5587H133.159V25.3119H144.575V21.5587H142.464L133.941 0.134415H127.373L118.929 21.5587H116.739ZM133.313 14.0915L130.266 5.76415L127.219 14.0915H133.313Z" fill="#F1141E"/>
<path d="M94.6885 3.88758V0.134415H105.792V3.88758H103.211L107.199 10.4556L111.187 3.88758H108.919V0.134415H119.084V3.88758H117.364L109.701 15.6162V21.6369H113.298V25.3119H100.475V21.6369H103.915V15.6162L96.4087 3.88758H94.6885Z" fill="#F1141E"/>
<path d="M142.934 9.20457V0.134415H165.14V9.20457H160.057V4.04396H156.93V21.5587H160.37V25.2337H147.547V21.5587H151.144V4.04396H147.86V9.20457H142.934Z" fill="#F1141E"/>
<path d="M39.9561 46.2671V37.0406H41.5199L44.7257 42.5139L47.9315 37.0406H49.339V46.2671H47.7752V40.2464L44.8821 45.0942H44.4129L41.5199 40.4028V46.2671H39.9561Z" fill="#F1141E"/>
<rect x="74.8281" y="37.0406" width="1.7202" height="9.22654" fill="#F1141E"/>
<path fill-rule="evenodd" clip-rule="evenodd" d="M103.134 37.0406H101.413V44.7033H101.413V46.2671H101.413V46.2671H103.134V46.2671H108.607V44.7033H103.134V37.0406Z" fill="#F1141E"/>
</svg>
