<svg width="22" height="22" viewBox="0 0 22 22" fill="none" xmlns="http://www.w3.org/2000/svg">
<path opacity="0.6" d="M18.4748 7.4413V7.44333V16.0692C18.4748 18.0487 16.8646 19.6667 14.8773 19.6667H7.11313C5.13427 19.6667 3.51562 18.048 3.51562 16.0692V7.44333C3.51562 5.46374 5.12583 3.84583 7.11313 3.84583H14.8865C16.8664 3.84583 18.4828 5.45598 18.4748 7.4413Z" stroke="black"/>
<path d="M14.3775 3.5519L14.3774 3.5519V3.55671V4.41837C14.3774 5.09557 13.8313 5.64171 13.1541 5.64171H8.83661C8.15942 5.64171 7.61328 5.09556 7.61328 4.41837V3.55671C7.61328 2.88296 8.16513 2.33337 8.84578 2.33337H13.1541C13.8357 2.33337 14.3839 2.88285 14.3775 3.5519Z" stroke="black"/>
<path d="M9.90917 10.2709H8.70206L9.55561 11.1244L13.8823 15.4511C13.9529 15.5217 13.9529 15.6451 13.8823 15.7157C13.8435 15.7544 13.7987 15.7709 13.75 15.7709C13.7013 15.7709 13.6565 15.7544 13.6177 15.7157L9.29105 11.389L8.4375 10.5354V11.7425V12.8334C8.4375 12.9331 8.34969 13.0209 8.25 13.0209C8.15031 13.0209 8.0625 12.9331 8.0625 12.8334V10.0834C8.0625 9.98368 8.15031 9.89587 8.25 9.89587H11C11.0997 9.89587 11.1875 9.98368 11.1875 10.0834C11.1875 10.1831 11.0997 10.2709 11 10.2709H9.90917Z" fill="black" stroke="black"/>
</svg>
