<svg width="113" height="40" viewBox="0 0 113 40" fill="none" xmlns="http://www.w3.org/2000/svg">
<g id="logo" clip-path="url(#clip0_3596_18845)">
<path id="Vector" fill-rule="evenodd" clip-rule="evenodd" d="M100.531 29.3759V23.5178H104.304C104.668 23.5178 105.397 23.6965 105.397 24.4114V26.3972C105.397 26.662 105.258 27.1915 104.701 27.1915H104.652H103.907L105.893 29.3759H104.304L102.368 27.1915H101.524V29.3759H100.531ZM101.524 24.6099V26.1986H103.808C104.007 26.1986 104.305 25.9007 104.305 25.7021V25.1064C104.305 24.9575 104.265 24.6099 103.907 24.6099H101.524Z" fill="#F1141E"/>
<path id="Vector_2" d="M93.9785 24.7093V23.5178H99.2407V24.7093H97.1557V29.3759H95.9639V24.7093H93.9785Z" fill="#F1141E"/>
<path id="Vector_3" fill-rule="evenodd" clip-rule="evenodd" d="M56.8438 29.3759H57.9856L58.482 28.1844H61.2622L61.7586 29.3759H63.0991L60.4679 23.5178H59.3757L56.8438 29.3759ZM60.6888 26.9929L59.8719 24.9079L59.0551 26.9929H60.6888Z" fill="#F1141E"/>
<path id="Vector_4" d="M55.8012 25.5036L54.709 25.7519H54.6594V24.7093H51.8793V28.2837H54.709V26.9929L55.7516 27.4894V28.5816C55.7516 29.1773 55.222 29.3593 54.9573 29.3759H51.5814C50.946 29.3759 50.7871 28.9788 50.7871 28.7802V24.4114C50.7871 23.6171 51.4324 23.5178 51.8296 23.5178H54.6098C55.9601 23.5973 55.8012 24.61 55.8012 25.5036Z" fill="#F1141E"/>
<path id="Vector_5" d="M78.7373 25.5036L77.6446 25.7519H77.595V24.7093H74.8147V28.2837H77.6446V26.9929L78.6871 27.4894V28.5816C78.6871 29.1773 78.1576 29.3593 77.8928 29.3759H74.5169C73.8814 29.3759 73.7227 28.9788 73.7227 28.7802V24.4114C73.7227 23.6171 74.3684 23.5178 74.7652 23.5178H77.5455C78.896 23.5973 78.7373 24.61 78.7373 25.5036Z" fill="#F1141E"/>
<path id="Vector_6" d="M33.5098 29.3759V23.5178H38.1764V24.5604H34.5523V25.8014H36.687V26.8936H34.5523V28.2837H38.2757V29.3759H33.5098Z" fill="#F1141E"/>
<path id="Vector_7" d="M80.7725 29.3759V23.5178H85.4391V24.5604H81.815V25.8014H83.9496V26.8936H81.815V28.2837H85.5382V29.3759H80.7725Z" fill="#F1141E"/>
<path id="Vector_8" d="M107.481 29.3759V23.5178H112.148V24.5604H108.524V25.8014H110.659V26.8936H108.524V28.2837H112.248V29.3759H107.481Z" fill="#F1141E"/>
<path id="Vector_9" d="M88.3687 29.3759H87.3262V23.5178H88.1205L91.6951 27.2908L91.7446 23.5178H92.7871V29.3759H91.8938L88.3687 25.6526V29.3759Z" fill="#F1141E"/>
<path id="Vector_10" fill-rule="evenodd" clip-rule="evenodd" d="M40.0635 23.5178V29.3759H43.7372C45.6237 29.227 46.9641 24.7589 43.7372 23.5178H40.0635ZM41.2549 24.7093V28.2837H42.5954C44.4322 28.2837 45.4748 25.2057 42.5954 24.7093H41.2549Z" fill="#F1141E"/>
<path id="Vector_11" d="M4.71628 18.9008L0 19.6455L5.26238 20.4398L9.18432 15.525L13.0566 26.3476L14.9432 8.72362L19.2126 40L23.0353 18.8512L24.7729 21.2342L112.148 20.142L25.7161 18.603L22.1914 15.0285L19.4112 27.9859L15.1914 0.929321L12.1134 21.6313L9.48222 13.3406L4.71628 18.9008Z" fill="#F1141E"/>
<path id="Vector_12" d="M27.3545 2.46829V0.0853271H34.9005V2.46829H32.8651V6.73776H39.0707V2.46829H37.0849V0.0853271H44.5813V2.46829H42.7445V13.688H44.5813V16.071H37.0849V13.688H39.0707V9.22005H32.8651V13.688H34.9005V16.071H27.3545V13.688H29.241V2.46829H27.3545Z" fill="#F1141E"/>
<path id="Vector_13" fill-rule="evenodd" clip-rule="evenodd" d="M45.0283 13.688V16.071H51.7801V13.688H49.8936L50.7872 11.4044H56.4964L57.3403 13.688H55.4538V16.071H62.702V13.688H61.3616L55.9503 0.0853271H51.7801L46.4184 13.688H45.0283ZM55.5516 8.94697L53.6169 3.65976L51.6822 8.94697H55.5516Z" fill="#F1141E"/>
<path id="Vector_14" fill-rule="evenodd" clip-rule="evenodd" d="M74.1201 13.688V16.071H80.8719V13.688H78.9855L79.8788 11.4044H85.5881L86.4325 13.688H84.5455V16.071H91.7938V13.688H90.4535L85.042 0.0853271H80.8719L75.5106 13.688H74.1201ZM84.6433 8.94697L82.7087 3.65976L80.7741 8.94697H84.6433Z" fill="#F1141E"/>
<path id="Vector_15" d="M60.1201 2.46829V0.0853271H67.17V2.46829H65.5312L68.0633 6.63846L70.5954 2.46829H69.1554V0.0853271H75.6093V2.46829H74.5173L69.6519 9.91503V13.7377H71.9357V16.071H63.7941V13.7377H65.9782V9.91503L61.2123 2.46829H60.1201Z" fill="#F1141E"/>
<path id="Vector_16" d="M90.752 5.84416V0.0853271H104.851V5.84416H101.624V2.56758H99.6383V13.688H101.822V16.0214H93.6808V13.688H95.9646V2.56758H93.8796V5.84416H90.752Z" fill="#F1141E"/>
<path id="Vector_17" d="M25.3691 29.3759V23.5178H26.362L28.3975 26.9929L30.4329 23.5178H31.3265V29.3759H30.3336V25.5532L28.4968 28.6312H28.1989L26.362 25.6526V29.3759H25.3691Z" fill="#F1141E"/>
<path id="Vector_18" d="M48.602 23.5178H47.5098V29.3759H48.602V23.5178Z" fill="#F1141E"/>
<path id="Vector_19" fill-rule="evenodd" clip-rule="evenodd" d="M65.4823 23.5178H64.3896V28.383V29.3759H65.4823H68.9573V28.383H65.4823V23.5178Z" fill="#F1141E"/>
</g>
<defs>
<clipPath id="clip0_3596_18845">
<rect width="112.381" height="40" fill="white"/>
</clipPath>
</defs>
</svg>
