<svg width="24" height="24" viewBox="0 0 24 24" fill="none" xmlns="http://www.w3.org/2000/svg">
<path d="M6 10V8C6 4.69 7 2 12 2C17 2 18 4.69 18 8V10" stroke="black" stroke-opacity="0.87" stroke-width="1.5" stroke-linecap="round" stroke-linejoin="round"/>
<path d="M15.8536 16.3536C16.0488 16.1583 16.0488 15.8417 15.8536 15.6464L12.6716 12.4645C12.4763 12.2692 12.1597 12.2692 11.9645 12.4645C11.7692 12.6597 11.7692 12.9763 11.9645 13.1716L14.7929 16L11.9645 18.8284C11.7692 19.0237 11.7692 19.3403 11.9645 19.5355C12.1597 19.7308 12.4763 19.7308 12.6716 19.5355L15.8536 16.3536ZM8 15.5C7.72386 15.5 7.5 15.7239 7.5 16C7.5 16.2761 7.72386 16.5 8 16.5V15.5ZM15.5 15.5H12V16.5H15.5V15.5ZM12 15.5H8V16.5H12V15.5Z" fill="black" fill-opacity="0.87"/>
<path d="M17 22H7C3 22 2 21 2 17V15C2 11 3 10 7 10H17C21 10 22 11 22 15V17C22 21 21 22 17 22Z" stroke="black" stroke-opacity="0.87" stroke-width="1.5" stroke-linecap="round" stroke-linejoin="round"/>
</svg>
